# Blender v2.78 (sub 0) OBJ File: 'gopnik_cube.blend'
# www.blender.org
o Cube
v 1.000000 -0.641613 -1.000000
v 1.000000 -0.641613 1.000000
v -1.000000 -0.641613 1.000000
v -1.000000 -0.641613 -1.000000
v 1.000000 1.358387 -0.999999
v 0.999999 1.358387 1.000001
v -1.000000 1.358387 1.000000
v -1.000000 1.358387 -1.000000
vt 0.1210 0.5377
vt 0.6227 0.0360
vt 0.6227 0.5377
vt 0.3314 0.9343
vt 0.6643 0.6013
vt 0.6643 0.9343
vt 0.9970 0.9969
vt -0.0013 -0.0013
vt 0.9970 -0.0013
vt 0.3281 0.5918
vt -0.0048 0.2588
vt 0.3281 0.2588
vt 0.2889 0.9657
vt 0.6218 0.6328
vt 0.6218 0.9657
vt 0.5885 0.2382
vt 1.0018 0.6290
vt 0.6001 0.6399
vt 0.1210 0.0360
vt 0.3314 0.6013
vt -0.0013 0.9969
vt -0.0048 0.5918
vt 0.2889 0.6328
vt 0.9902 0.2273
vn 0.0000 -1.0000 0.0000
vn 0.0000 1.0000 0.0000
vn 1.0000 -0.0000 0.0000
vn 0.0000 -0.0000 1.0000
vn -1.0000 -0.0000 -0.0000
vn 0.0000 0.0000 -1.0000
s off
f 2/1/1 4/2/1 1/3/1
f 8/4/2 6/5/2 5/6/2
f 5/7/3 2/8/3 1/9/3
f 6/10/4 3/11/4 2/12/4
f 3/13/5 8/14/5 4/15/5
f 1/16/6 8/17/6 5/18/6
f 2/1/1 3/19/1 4/2/1
f 8/4/2 7/20/2 6/5/2
f 5/7/3 6/21/3 2/8/3
f 6/10/4 7/22/4 3/11/4
f 3/13/5 7/23/5 8/14/5
f 1/16/6 4/24/6 8/17/6
