# Blender v2.79 (sub 0) OBJ File: 'Herubin.blend'
# www.blender.org
o Icosphere
v -0.000171 -0.998198 0.000651
v -0.276559 -0.445418 0.851300
v -1.004115 -0.653333 -0.385191
v -0.276559 -0.445418 -0.849998
v -0.723778 0.449021 0.526376
v -0.723778 0.449021 -0.525074
v 0.276217 -0.445418 0.851300
v -0.000171 1.001802 0.000651
v -0.162626 -0.848853 0.500646
v 1.003774 -0.653333 -0.385191
v 0.276217 -0.445418 -0.849998
v -0.800312 -0.848867 -0.409330
v -0.688360 -0.523935 0.500648
v -0.561489 -0.748034 -0.543206
v -0.342138 -0.332711 -1.692811
v 0.723437 0.449021 0.526376
v 0.723437 0.449021 -0.525074
v -0.000171 0.140810 1.211267
v -0.951228 0.001802 0.309664
v -0.587956 0.001802 0.809668
v -0.776996 -0.274009 -0.570613
v -1.015819 -0.374844 -0.436733
v -0.000171 0.001802 -0.999349
v 0.162285 -0.848853 0.500646
v -0.185058 0.520965 1.113132
v -0.850819 0.527538 0.000651
v -0.171969 0.583650 -1.009145
v 0.799971 -0.848867 -0.409330
v -0.425493 0.852456 0.309662
v -0.425493 0.852456 -0.308360
v 0.688019 -0.523935 0.500648
v -0.000171 -0.485661 0.829960
v -0.000171 0.355589 -1.499652
v -0.000171 -0.485661 -0.828657
v -0.000171 0.278599 1.737562
v -0.000171 0.951170 -0.446558
v -0.000171 0.756080 -0.951105
v -0.000171 0.923103 0.447860
v -0.000171 0.689919 1.014258
v -0.000171 -0.848853 -0.446558
v -0.000171 -0.724749 -0.617375
v -0.000171 -0.724749 0.618677
v -0.000171 -0.848853 0.447860
v 0.561147 -0.748034 -0.543206
v 0.341796 -0.332711 -1.692811
v 0.950887 0.001802 0.309664
v 0.587615 0.001802 0.809668
v -0.587956 0.001802 -0.808366
v -0.584686 -0.476250 -0.620311
v -0.894597 -0.445414 0.000651
v -0.525900 -0.848850 0.000651
v -0.162626 -0.848853 -0.499344
v -0.951228 0.001802 -0.308362
v -0.739824 -0.336438 -1.056468
v -0.589330 -0.457546 -1.045642
v -0.891054 -0.618766 -1.032736
v -0.741077 -0.737431 -1.003465
v -0.571898 -0.647032 -1.010700
v -0.909003 -0.426839 -1.049230
v -0.586458 -0.300459 -1.502178
v -0.492651 -0.376098 -1.494545
v -0.665145 -0.468264 -1.487167
v -0.571613 -0.542606 -1.469736
v -0.481555 -0.494484 -1.473588
v -0.676516 -0.348582 -1.498325
v 0.776654 -0.274009 -0.570613
v 1.015477 -0.374844 -0.436733
v 0.184716 0.520965 1.113132
v 0.850477 0.527538 0.000651
v 0.171628 0.583650 -1.009145
v 0.425152 0.852456 0.309662
v 0.425152 0.852456 -0.308360
v 0.587615 0.001802 -0.808366
v 0.584345 -0.476250 -0.620311
v -0.000171 0.234431 -0.917891
v 0.894256 -0.445414 0.000651
v 0.525559 -0.848850 0.000651
v 0.162285 -0.848853 -0.499344
v 0.950887 0.001802 -0.308362
v 0.739483 -0.336438 -1.056468
v 0.588989 -0.457546 -1.045642
v 0.890712 -0.618766 -1.032736
v 0.740735 -0.737431 -1.003465
v 0.571557 -0.647032 -1.010700
v 0.908662 -0.426839 -1.049230
v 0.586116 -0.300459 -1.502178
v 0.492310 -0.376098 -1.494545
v 0.664803 -0.468264 -1.487167
v 0.571272 -0.542606 -1.469736
v 0.481214 -0.494484 -1.473588
v 0.676175 -0.348582 -1.498325
v -0.000171 0.886297 -0.617375
v -0.263039 0.527539 -0.808361
v -0.000171 0.381345 -0.980344
v 0.262698 0.527539 -0.808361
v -0.000171 0.598985 -1.300878
v -0.095515 0.497119 -1.300770
v -0.000171 0.399681 -1.242632
v 0.095174 0.497119 -1.300770
v -0.000171 0.833339 0.618677
v -0.263039 0.527539 0.809663
v -0.000171 0.051348 1.100099
v 0.262698 0.527539 0.809663
v -0.000171 0.460448 1.450065
v -0.084033 0.375689 1.476850
v -0.000171 0.197537 1.479691
v 0.083692 0.375689 1.476850
vt 0.060590 0.121890
vt 0.077218 0.134338
vt 0.024909 0.158754
vt 0.077011 0.184394
vt 0.058015 0.195638
vt 0.092055 0.176429
vt 0.274571 0.106709
vt 0.172725 0.162102
vt 0.164889 0.130988
vt 0.090488 0.142214
vt 0.095610 0.158636
vt 0.128136 0.071815
vt 0.278200 0.214400
vt 0.171508 0.193904
vt 0.146501 0.102634
vt 0.152829 0.220740
vt 0.362866 0.137561
vt 0.280898 0.160291
vt 0.196393 0.026561
vt 0.193285 0.286472
vt 0.127265 0.242912
vt 0.234666 0.252650
vt 0.232097 0.067306
vt 0.862650 0.617832
vt 0.893295 0.713550
vt 0.779740 0.674474
vt 0.680241 0.339491
vt 0.654048 0.429424
vt 0.575001 0.357378
vt 0.678138 0.835736
vt 0.574971 0.825425
vt 0.649104 0.741171
vt 0.678138 0.749555
vt 0.785480 0.357382
vt 0.875932 0.414753
vt 0.794579 0.466608
vt 0.484547 0.414747
vt 0.565898 0.466605
vt 0.471053 0.520761
vt 0.058636 0.888194
vt 0.018506 0.856231
vt 0.073523 0.873709
vt 0.955079 0.646491
vt 0.879427 0.580901
vt 0.988996 0.551308
vt 0.811693 0.417029
vt 0.903152 0.356220
vt 0.907598 0.470684
vt 0.637679 0.511187
vt 0.680238 0.608200
vt 0.572029 0.565097
vt 0.401197 0.646491
vt 0.367280 0.551308
vt 0.476849 0.580901
vt 0.633864 0.651358
vt 0.582439 0.582052
vt 0.678138 0.579292
vt 0.706432 0.429425
vt 0.722798 0.511188
vt 0.726553 0.486758
vt 0.773838 0.582052
vt 0.497823 0.617829
vt 0.580734 0.674474
vt 0.467175 0.713548
vt 0.536561 0.507533
vt 0.448678 0.470684
vt 0.544583 0.417029
vt 0.011554 0.613037
vt 0.051686 0.594791
vt 0.061956 0.612596
vt 0.678138 0.659044
vt 0.722412 0.651358
vt 0.707172 0.741171
vt 0.781305 0.825425
vt 0.070936 0.338329
vt 0.022577 0.357143
vt 0.046110 0.313563
vt 0.819716 0.507533
vt 0.612387 0.372774
vt 0.547820 0.320154
vt 0.635980 0.396938
vt 0.629723 0.486758
vt 0.453124 0.356220
vt 0.397247 0.615779
vt 0.678138 0.712412
vt 0.720296 0.396938
vt 0.680239 0.455568
vt 0.889423 0.520766
vt 0.051999 0.630579
vt 0.678138 0.539672
vt 0.963225 0.615785
vt 0.085668 0.864189
vt 0.088634 0.847245
vt 0.788447 0.565100
vt 0.680240 0.421749
vt 0.066873 0.824096
vt 0.046587 0.815392
vt 0.082817 0.830058
vt 0.743889 0.372774
vt 0.808457 0.320154
vt 0.559028 0.758415
vt 0.527055 0.778004
vt 0.071646 0.374017
vt 0.082688 0.355946
vt 0.448447 0.818083
vt 0.801444 0.758415
vt 0.047825 0.399751
vt 0.680239 0.505033
vt 0.570029 0.668716
vt 0.262523 0.768434
vt 0.356379 0.833731
vt 0.272166 0.821745
vt 0.576910 0.720841
vt 0.485571 0.654018
vt 0.534060 0.631462
vt 0.527573 0.745289
vt 0.146312 0.896228
vt 0.205584 0.965243
vt 0.132068 0.929154
vt 0.164660 0.833878
vt 0.137380 0.778289
vt 0.169035 0.707896
vt 0.214427 0.736108
vt 0.272791 0.875695
vt 0.160896 0.865742
vt 0.235745 0.920240
vt 0.159359 0.802497
vt 0.109174 0.759594
vt 0.912020 0.818083
vt 0.833415 0.778004
vt 0.786248 0.668716
vt 0.822217 0.631462
vt 0.779366 0.720841
vt 0.828703 0.745289
vt 0.870705 0.654018
vt 0.038768 0.651902
vt 0.038085 0.573703
vt 0.122890 0.612064
vt 0.129499 0.543340
vt 0.188607 0.611489
vt 0.066746 0.537000
vt 0.099380 0.572404
vt 0.130699 0.680662
vt 0.100077 0.652128
vt 0.068067 0.688098
vt 0.065826 0.717071
vt 0.165944 0.354290
vt 0.188139 0.416172
vt 0.138436 0.390887
vt 0.087139 0.463679
vt 0.079278 0.438949
vt 0.185660 0.291573
vt 0.240585 0.352804
vt 0.137002 0.318815
vt 0.082849 0.248122
vt 0.075979 0.273145
vt 0.472979 0.840787
vt 0.883297 0.840787
vt 0.063999 0.508070
vn -0.7366 0.4893 0.4668
vn 0.0016 0.9912 -0.1321
vn -0.7077 0.2612 -0.6565
vn -0.8553 -0.5182 0.0025
vn 0.0097 -0.8518 -0.5237
vn 0.9650 0.2322 -0.1218
vn 0.8079 -0.4756 -0.3479
vn 0.8695 0.4024 -0.2862
vn 0.7074 0.4179 -0.5700
vn 0.6165 -0.4031 -0.6764
vn -0.8640 0.4806 0.1500
vn 0.3140 -0.9484 0.0437
vn 0.0956 -0.9473 -0.3058
vn -0.0561 0.9984 -0.0033
vn -0.8649 -0.4955 -0.0803
vn 0.8932 -0.3559 0.2747
vn 0.8860 -0.4367 0.1561
vn -0.2790 0.0695 -0.9578
vn -0.2109 -0.8933 -0.3969
vn 0.5561 0.5015 -0.6627
vn 0.7236 0.4472 0.5257
vn 0.4724 0.8355 0.2805
vn 0.6469 0.4973 0.5781
vn 0.0000 -1.0000 0.0000
vn -0.1625 -0.8506 0.5000
vn -0.4300 -0.8907 0.1474
vn -0.0583 -0.8726 -0.4850
vn 0.0000 -0.9014 -0.4329
vn 0.4300 -0.8907 0.1474
vn 0.6882 -0.5257 0.5000
vn -0.8932 -0.3559 0.2747
vn -0.6882 -0.5257 0.5000
vn -0.9510 0.0000 0.3090
vn 0.7366 0.4893 0.4668
vn 0.7077 0.2612 -0.6565
vn -0.0016 0.9912 -0.1321
vn 0.9537 0.1497 -0.2607
vn 0.9510 0.0000 0.3090
vn 0.4931 0.8280 -0.2671
vn 0.8506 0.5257 0.0000
vn -0.2982 -0.4863 0.8213
vn 0.0000 -0.2528 0.9675
vn -0.6267 -0.0038 0.7793
vn -0.9537 0.1497 -0.2607
vn -0.2403 -0.4116 -0.8791
vn -0.5672 0.0246 -0.8232
vn 0.0000 0.0158 -0.9998
vn 0.1625 -0.8506 0.5000
vn 0.2982 -0.4863 0.8213
vn 0.6146 0.3836 -0.6892
vn 0.5672 0.0246 -0.8232
vn -0.7236 0.4472 0.5257
vn -0.6469 0.4973 0.5781
vn -0.4724 0.8355 0.2805
vn -0.7236 0.4472 -0.5257
vn -0.8506 0.5257 0.0000
vn -0.4931 0.8280 -0.2671
vn 0.0000 -0.5277 -0.8494
vn -0.9386 -0.0085 -0.3449
vn 0.0000 0.8086 -0.5882
vn 0.0000 -0.5229 -0.8524
vn 0.2403 -0.4116 -0.8791
vn 0.0583 -0.8726 -0.4850
vn 0.9253 0.1690 0.3394
vn 0.0000 -0.1984 0.9801
vn 0.0000 -0.9689 0.2474
vn 0.7236 0.4472 -0.5257
vn 0.0000 0.9672 -0.2539
vn 0.0000 0.9998 0.0186
vn 0.0000 0.8693 -0.4942
vn -0.6146 0.3836 -0.6892
vn 0.0000 -0.7009 -0.7132
vn 0.0000 -0.7009 0.7132
vn 0.9386 -0.0085 -0.3449
vn 0.0000 0.1673 -0.9859
vn -0.7074 0.4179 -0.5700
vn -0.6165 -0.4031 -0.6764
vn 0.6267 -0.0038 0.7793
vn 0.0000 -0.9014 0.4329
vn 0.8553 -0.5182 0.0025
vn -0.0097 -0.8518 -0.5237
vn 0.0000 0.8559 0.5171
vn 0.0000 0.9387 0.3446
vn -0.9253 0.1690 0.3394
vn 0.0000 0.8547 0.5191
vn 0.0000 -0.5713 0.8207
vn 0.2790 0.0695 -0.9578
vn -0.3140 -0.9484 0.0437
vn -0.8860 -0.4367 0.1561
vn 0.2109 -0.8933 -0.3969
vn -0.9650 0.2322 -0.1218
vn -0.5561 0.5015 -0.6627
vn 0.0561 0.9984 -0.0033
vn 0.8640 0.4806 0.1500
vn -0.8079 -0.4756 -0.3479
vn 0.8649 -0.4955 -0.0803
vn -0.8695 0.4024 -0.2862
vn -0.0956 -0.9473 -0.3058
vn 0.0000 -0.9984 0.0567
vn 0.0000 0.9405 -0.3397
vn 0.0000 -0.7527 -0.6583
vn -0.9293 0.1632 -0.3313
vn 0.9293 0.1632 -0.3313
vn 0.0000 0.9386 0.3449
vn -0.8963 0.3045 0.3224
vn 0.0000 -0.8909 0.4541
vn 0.8963 0.3045 0.3224
s 1
f 87/1/1 86/2/2 45/3/3
f 90/4/4 87/5/1 45/3/3
f 90/4/4 45/3/3 89/6/5
f 67/7/6 82/8/7 85/9/8
f 45/3/3 91/10/9 88/11/10
f 81/12/11 86/2/2 87/1/1
f 86/2/2 91/10/9 45/3/3
f 89/6/5 45/3/3 88/11/10
f 82/8/7 28/13/12 83/14/13
f 80/15/14 91/10/9 86/2/2
f 82/8/7 89/6/5 88/11/10
f 89/6/5 84/16/15 90/4/4
f 76/17/16 28/13/12 10/18/17
f 67/7/6 76/17/16 10/18/17
f 74/19/18 80/15/14 81/12/11
f 84/16/15 74/20/18 81/21/11
f 83/14/13 44/22/19 84/16/15
f 85/9/8 88/11/10 91/10/9
f 90/4/4 81/21/11 87/5/1
f 66/23/20 85/9/8 80/15/14
f 67/7/6 10/18/17 82/8/7
f 81/12/11 80/15/14 86/2/2
f 82/8/7 10/18/17 28/13/12
f 80/15/14 85/9/8 91/10/9
f 82/8/7 83/14/13 89/6/5
f 89/6/5 83/14/13 84/16/15
f 74/19/18 66/23/20 80/15/14
f 84/16/15 44/22/19 74/20/18
f 83/14/13 28/13/12 44/22/19
f 85/9/8 82/8/7 88/11/10
f 90/4/4 84/16/15 81/21/11
f 66/23/20 67/7/6 85/9/8
f 16/24/21 71/25/22 103/26/23
f 1/27/24 9/28/25 51/29/26
f 1/30/24 51/31/26 52/32/27
f 1/30/24 52/32/27 40/33/28
f 77/34/29 76/35/16 31/36/30
f 50/37/31 13/38/32 19/39/33
f 61/40/34 15/41/35 60/42/36
f 76/43/16 79/44/37 46/45/38
f 72/46/39 71/47/22 69/48/40
f 2/49/41 102/50/42 20/51/43
f 50/52/31 19/53/33 53/54/44
f 4/55/45 48/56/46 23/57/47
f 24/58/48 31/36/30 7/59/49
f 23/57/47 95/60/50 73/61/51
f 5/62/52 101/63/53 29/64/54
f 6/65/55 26/66/56 30/67/57
f 33/68/58 97/69/59 96/70/60
f 34/71/61 23/57/47 11/72/62
f 1/30/24 78/73/63 77/74/29
f 107/75/64 35/76/65 106/77/66
f 79/44/37 17/78/67 69/48/40
f 36/79/68 30/67/57 8/80/69
f 92/81/70 30/67/57 36/79/68
f 93/82/71 6/65/55 30/67/57
f 30/67/57 29/83/54 8/80/69
f 30/67/57 26/66/56 29/83/54
f 26/84/56 5/62/52 29/64/54
f 1/27/24 77/34/29 24/58/48
f 1/30/24 40/33/28 78/73/63
f 41/85/72 11/72/62 78/73/63
f 92/86/70 72/46/39 95/60/50
f 7/59/49 42/87/73 24/58/48
f 76/35/16 46/88/38 31/36/30
f 33/68/58 96/70/60 99/89/74
f 23/57/47 93/82/71 75/90/75
f 23/57/47 48/56/46 93/82/71
f 48/56/46 6/65/55 93/82/71
f 53/54/44 26/66/56 6/65/55
f 53/54/44 19/53/33 26/66/56
f 19/39/33 5/62/52 26/84/56
f 20/51/43 101/63/53 5/62/52
f 20/51/43 102/50/42 101/63/53
f 77/34/29 31/36/30 24/58/48
f 95/60/50 72/46/39 17/78/67
f 79/44/37 69/48/40 46/45/38
f 69/91/40 71/25/22 16/24/21
f 34/71/61 4/55/45 23/57/47
f 48/56/46 53/54/44 6/65/55
f 60/42/36 15/41/35 65/92/76
f 15/41/35 62/93/77 65/92/76
f 19/39/33 20/51/43 5/62/52
f 19/39/33 13/38/32 20/51/43
f 13/38/32 2/49/41 20/51/43
f 46/88/38 16/24/21 47/94/78
f 73/61/51 17/78/67 79/44/37
f 24/58/48 43/95/79 1/27/24
f 47/94/78 16/24/21 103/26/23
f 73/61/51 95/60/50 17/78/67
f 40/33/28 52/32/27 41/85/72
f 64/96/80 15/41/35 61/97/34
f 64/96/80 63/98/81 15/41/35
f 63/98/81 62/93/77 15/41/35
f 51/29/26 13/38/32 50/37/31
f 51/29/26 9/28/25 13/38/32
f 9/28/25 2/49/41 13/38/32
f 46/88/38 69/91/40 16/24/21
f 47/94/78 103/26/23 102/50/42
f 36/99/68 8/100/69 72/46/39
f 11/72/62 23/57/47 73/61/51
f 9/28/25 43/95/79 42/87/73
f 7/59/49 47/94/78 102/50/42
f 29/64/54 100/101/82 38/102/83
f 23/57/47 75/90/75 95/60/50
f 105/103/84 35/76/65 104/104/85
f 4/55/45 41/85/72 52/32/27
f 17/78/67 72/46/39 69/48/40
f 29/64/54 38/102/83 8/105/69
f 72/46/39 8/100/69 71/47/22
f 71/25/22 100/106/82 103/26/23
f 105/103/84 106/107/66 35/76/65
f 2/49/41 32/108/86 102/50/42
f 42/87/73 2/49/41 9/28/25
f 9/28/25 1/27/24 43/95/79
f 31/36/30 47/94/78 7/59/49
f 49/109/87 48/56/46 4/55/45
f 12/110/88 50/111/31 3/112/89
f 14/113/90 4/55/45 52/32/27
f 22/114/91 50/52/31 53/54/44
f 21/115/92 53/54/44 48/56/46
f 14/113/90 51/31/26 12/116/88
f 54/117/93 49/118/87 55/119/94
f 56/120/95 12/110/88 3/112/89
f 58/121/96 49/122/87 14/123/90
f 56/120/95 22/124/91 59/125/97
f 59/125/97 21/126/92 54/117/93
f 57/127/98 14/123/90 12/110/88
f 60/42/36 55/119/94 61/40/34
f 63/98/81 56/120/95 62/93/77
f 64/96/80 55/128/94 58/121/96
f 62/93/77 59/125/97 65/92/76
f 65/92/76 54/117/93 60/42/36
f 63/98/81 58/121/96 57/127/98
f 46/88/38 47/94/78 31/36/30
f 40/33/28 41/85/72 78/73/63
f 107/75/64 104/104/85 35/76/65
f 7/59/49 102/50/42 32/108/86
f 71/25/22 8/129/69 38/130/83
f 24/58/48 42/87/73 43/95/79
f 74/131/18 73/61/51 66/132/20
f 77/74/29 44/133/19 28/134/12
f 66/132/20 79/44/37 67/135/6
f 44/133/19 11/72/62 74/131/18
f 98/136/99 33/68/58 99/89/74
f 98/137/99 97/69/59 33/68/58
f 37/138/100 93/139/71 92/140/70
f 94/141/101 93/139/71 27/142/102
f 37/138/100 95/143/50 70/144/103
f 94/145/101 95/143/50 75/146/75
f 96/70/60 27/142/102 37/138/100
f 98/137/99 27/142/102 97/69/59
f 96/70/60 70/144/103 99/89/74
f 98/136/99 70/144/103 94/145/101
f 39/147/104 101/148/53 25/149/105
f 25/149/105 102/150/42 18/151/106
f 39/147/104 103/152/23 100/153/82
f 68/154/107 102/155/42 103/152/23
f 104/104/85 25/149/105 105/103/84
f 105/103/84 18/151/106 106/107/66
f 104/104/85 68/154/107 39/147/104
f 107/75/64 18/156/106 68/154/107
f 92/81/70 93/82/71 30/67/57
f 41/85/72 34/71/61 11/72/62
f 92/86/70 36/99/68 72/46/39
f 7/59/49 32/108/86 42/87/73
f 29/64/54 101/63/53 100/101/82
f 4/55/45 34/71/61 41/85/72
f 71/25/22 38/130/83 100/106/82
f 42/87/73 32/108/86 2/49/41
f 49/109/87 21/115/92 48/56/46
f 12/116/88 51/31/26 50/157/31
f 14/113/90 49/109/87 4/55/45
f 22/124/91 3/112/89 50/111/31
f 21/115/92 22/114/91 53/54/44
f 14/113/90 52/32/27 51/31/26
f 54/117/93 21/126/92 49/118/87
f 56/120/95 57/127/98 12/110/88
f 58/121/96 55/128/94 49/122/87
f 56/120/95 3/112/89 22/124/91
f 59/125/97 22/124/91 21/126/92
f 57/127/98 58/121/96 14/123/90
f 60/42/36 54/117/93 55/119/94
f 63/98/81 57/127/98 56/120/95
f 64/96/80 61/97/34 55/128/94
f 62/93/77 56/120/95 59/125/97
f 65/92/76 59/125/97 54/117/93
f 63/98/81 64/96/80 58/121/96
f 74/131/18 11/72/62 73/61/51
f 76/158/16 77/74/29 28/134/12
f 67/135/6 79/44/37 76/43/16
f 77/74/29 78/73/63 44/133/19
f 66/132/20 73/61/51 79/44/37
f 44/133/19 78/73/63 11/72/62
f 37/138/100 27/142/102 93/139/71
f 94/141/101 75/159/75 93/139/71
f 37/138/100 92/140/70 95/143/50
f 94/145/101 70/144/103 95/143/50
f 96/70/60 97/69/59 27/142/102
f 98/137/99 94/141/101 27/142/102
f 96/70/60 37/138/100 70/144/103
f 98/136/99 99/89/74 70/144/103
f 39/147/104 100/153/82 101/148/53
f 25/149/105 101/148/53 102/150/42
f 39/147/104 68/154/107 103/152/23
f 68/154/107 18/156/106 102/155/42
f 104/104/85 39/147/104 25/149/105
f 105/103/84 25/149/105 18/151/106
f 104/104/85 107/75/64 68/154/107
f 107/75/64 106/77/66 18/156/106
