# Blender v2.79 (sub 0) OBJ File: 'Herubin.blend'
# www.blender.org
mtllib herub2.mtl
o Icosphere
v -0.000171 -0.998198 0.000651
v -0.276559 -0.445418 0.851300
v -1.004115 -0.653333 -0.385191
v -0.276559 -0.445418 -0.849998
v -0.723778 0.449021 0.526376
v -0.723778 0.449021 -0.525074
v 0.276217 -0.445418 0.851300
v -0.000171 1.001802 0.000651
v -0.162626 -0.848853 0.500646
v 1.003774 -0.653333 -0.385191
v 0.276217 -0.445418 -0.849998
v -0.800312 -0.848867 -0.409330
v -0.688360 -0.523935 0.500648
v -0.561489 -0.748034 -0.543206
v -0.342138 -0.332711 -1.692811
v 0.723437 0.449021 0.526376
v 0.723437 0.449021 -0.525074
v -0.000171 0.140810 1.211267
v -0.951228 0.001802 0.309664
v -0.587956 0.001802 0.809668
v -0.776996 -0.274009 -0.570613
v -1.015819 -0.374844 -0.436733
v -0.000171 0.001802 -0.999349
v 0.162285 -0.848853 0.500646
v -0.185058 0.520965 1.113132
v -0.850819 0.527538 0.000651
v -0.171969 0.583650 -1.009145
v 0.799971 -0.848867 -0.409330
v -0.425493 0.852456 0.309662
v -0.425493 0.852456 -0.308360
v 0.688019 -0.523935 0.500648
v -0.000171 -0.485661 0.829960
v -0.000171 0.355589 -1.499652
v -0.000171 -0.485661 -0.828657
v -0.000171 0.278599 1.737562
v -0.000171 0.951170 -0.446558
v -0.000171 0.756080 -0.951105
v -0.000171 0.923103 0.447860
v -0.000171 0.689919 1.014258
v -0.000171 -0.848853 -0.446558
v -0.000171 -0.724749 -0.617375
v -0.000171 -0.724749 0.618677
v -0.000171 -0.848853 0.447860
v 0.561147 -0.748034 -0.543206
v 0.341796 -0.332711 -1.692811
v 0.950887 0.001802 0.309664
v 0.587615 0.001802 0.809668
v -0.587956 0.001802 -0.808366
v -0.584686 -0.476250 -0.620311
v -0.894597 -0.445414 0.000651
v -0.525900 -0.848850 0.000651
v -0.162626 -0.848853 -0.499344
v -0.951228 0.001802 -0.308362
v -0.739824 -0.336438 -1.056468
v -0.589330 -0.457546 -1.045642
v -0.891054 -0.618766 -1.032736
v -0.741077 -0.737431 -1.003465
v -0.571898 -0.647032 -1.010700
v -0.909003 -0.426839 -1.049230
v -0.586458 -0.300459 -1.502178
v -0.492651 -0.376098 -1.494545
v -0.665145 -0.468264 -1.487167
v -0.571613 -0.542606 -1.469736
v -0.481555 -0.494484 -1.473588
v -0.676516 -0.348582 -1.498325
v 0.776654 -0.274009 -0.570613
v 1.015477 -0.374844 -0.436733
v 0.184716 0.520965 1.113132
v 0.850477 0.527538 0.000651
v 0.171628 0.583650 -1.009145
v 0.425152 0.852456 0.309662
v 0.425152 0.852456 -0.308360
v 0.587615 0.001802 -0.808366
v 0.584345 -0.476250 -0.620311
v -0.000171 0.234431 -0.917891
v 0.894256 -0.445414 0.000651
v 0.525559 -0.848850 0.000651
v 0.162285 -0.848853 -0.499344
v 0.950887 0.001802 -0.308362
v 0.739483 -0.336438 -1.056468
v 0.588989 -0.457546 -1.045642
v 0.890712 -0.618766 -1.032736
v 0.740735 -0.737431 -1.003465
v 0.571557 -0.647032 -1.010700
v 0.908662 -0.426839 -1.049230
v 0.586116 -0.300459 -1.502178
v 0.492310 -0.376098 -1.494545
v 0.664803 -0.468264 -1.487167
v 0.571272 -0.542606 -1.469736
v 0.481214 -0.494484 -1.473588
v 0.676175 -0.348582 -1.498325
v -0.000171 0.886297 -0.617375
v -0.263039 0.527539 -0.808361
v -0.000171 0.381345 -0.980344
v 0.262698 0.527539 -0.808361
v -0.000171 0.598985 -1.300878
v -0.095515 0.497119 -1.300770
v -0.000171 0.399681 -1.242632
v 0.095174 0.497119 -1.300770
v -0.000171 0.833339 0.618677
v -0.263039 0.527539 0.809663
v -0.000171 0.051348 1.100099
v 0.262698 0.527539 0.809663
v -0.000171 0.460448 1.450065
v -0.084033 0.375689 1.476850
v -0.000171 0.197537 1.479691
v 0.083692 0.375689 1.476850
vt 0.084375 0.111667
vt 0.093750 0.122500
vt 0.063125 0.139167
vt 0.814375 0.574167
vt 0.840000 0.681667
vt 0.744375 0.638333
vt 0.660625 0.262500
vt 0.638750 0.363333
vt 0.572500 0.282500
vt 0.657500 0.854167
vt 0.570625 0.842500
vt 0.633125 0.748333
vt 0.657500 0.757500
vt 0.749375 0.282500
vt 0.825625 0.346667
vt 0.756875 0.405000
vt 0.092500 0.160833
vt 0.081875 0.168333
vt 0.496250 0.346667
vt 0.564375 0.405000
vt 0.485000 0.465833
vt 0.116250 0.346667
vt 0.098125 0.320000
vt 0.125625 0.337500
vt 0.890625 0.641667
vt 0.826875 0.568333
vt 0.918750 0.535000
vt 0.770000 0.384167
vt 0.846875 0.315833
vt 0.850625 0.444167
vt 0.625000 0.455000
vt 0.660625 0.563333
vt 0.570000 0.515000
vt 0.424375 0.641667
vt 0.395625 0.535000
vt 0.488125 0.568333
vt 0.620000 0.647500
vt 0.576875 0.569167
vt 0.657500 0.566667
vt 0.683125 0.363333
vt 0.696875 0.455000
vt 0.698125 0.462500
vt 0.738125 0.569167
vt 0.507500 0.574167
vt 0.576875 0.638333
vt 0.481875 0.681667
vt 0.538125 0.485833
vt 0.464375 0.444167
vt 0.545000 0.384167
vt 0.148750 0.598333
vt 0.138750 0.645833
vt 0.121250 0.641667
vt 0.657500 0.655833
vt 0.694375 0.647500
vt 0.681875 0.748333
vt 0.744375 0.842500
vt 0.179375 0.698333
vt 0.206250 0.670833
vt 0.199375 0.713333
vt 0.776250 0.485833
vt 0.601875 0.335000
vt 0.547500 0.275833
vt 0.621875 0.361667
vt 0.616875 0.462500
vt 0.468125 0.315833
vt 0.422500 0.572500
vt 0.657500 0.715833
vt 0.692500 0.361667
vt 0.660625 0.392500
vt 0.836875 0.465833
vt 0.115625 0.620000
vt 0.101875 0.155000
vt 0.208750 0.105833
vt 0.148750 0.145833
vt 0.145000 0.121667
vt 0.657500 0.521667
vt 0.101250 0.128333
vt 0.103750 0.140833
vt 0.124375 0.075000
vt 0.898750 0.572500
vt 0.132500 0.332500
vt 0.135625 0.320833
vt 0.751875 0.515000
vt 0.660625 0.354167
vt 0.208125 0.188333
vt 0.147500 0.170000
vt 0.125625 0.302500
vt 0.115625 0.294167
vt 0.133750 0.307500
vt 0.134375 0.099167
vt 0.712500 0.335000
vt 0.766875 0.275833
vt 0.558750 0.732500
vt 0.531875 0.754167
vt 0.173125 0.668333
vt 0.168750 0.685833
vt 0.465625 0.799167
vt 0.135625 0.190833
vt 0.762500 0.732500
vt 0.183125 0.641667
vt 0.660625 0.447500
vt 0.566250 0.666667
vt 0.232500 0.282500
vt 0.277500 0.337500
vt 0.233750 0.320833
vt 0.571875 0.725000
vt 0.495625 0.650000
vt 0.536250 0.625000
vt 0.530625 0.752500
vt 0.161875 0.360833
vt 0.187500 0.415000
vt 0.151875 0.382500
vt 0.176250 0.318333
vt 0.166250 0.277500
vt 0.187500 0.230833
vt 0.209375 0.255833
vt 0.230000 0.359167
vt 0.171875 0.340833
vt 0.206875 0.386667
vt 0.176250 0.296667
vt 0.152500 0.261667
vt 0.855625 0.799167
vt 0.790000 0.754167
vt 0.748125 0.666667
vt 0.778750 0.625000
vt 0.258750 0.131667
vt 0.210625 0.147500
vt 0.742500 0.725000
vt 0.783750 0.752500
vt 0.819375 0.650000
vt 0.165000 0.042500
vt 0.158125 0.242500
vt 0.120625 0.206667
vt 0.182500 0.217500
vt 0.185000 0.074167
vt 0.109375 0.592500
vt 0.159375 0.650000
vt 0.088125 0.693333
vt 0.128125 0.749167
vt 0.052500 0.749167
vt 0.166875 0.700833
vt 0.126250 0.702500
vt 0.040625 0.650000
vt 0.075625 0.645000
vt 0.070000 0.590833
vt 0.053125 0.567500
vt 0.116875 0.706667
vt 0.092500 0.660833
vt 0.128125 0.670000
vt 0.146875 0.597500
vt 0.156875 0.615833
vt 0.116250 0.765000
vt 0.070625 0.726667
vt 0.141875 0.730000
vt 0.188125 0.776667
vt 0.187500 0.754167
vt 0.485000 0.860000
vt 0.830000 0.860000
vt 0.186875 0.720000
vn -0.7366 0.4893 0.4668
vn 0.0016 0.9912 -0.1321
vn -0.7077 0.2612 -0.6565
vn 0.7236 0.4472 0.5257
vn 0.4724 0.8355 0.2805
vn 0.6469 0.4973 0.5781
vn 0.0000 -1.0000 0.0000
vn -0.1625 -0.8506 0.5000
vn -0.4300 -0.8907 0.1474
vn -0.0583 -0.8726 -0.4850
vn 0.0000 -0.9014 -0.4329
vn 0.4300 -0.8907 0.1474
vn 0.8932 -0.3559 0.2747
vn 0.6882 -0.5257 0.5000
vn -0.8553 -0.5182 0.0025
vn -0.8932 -0.3559 0.2747
vn -0.6882 -0.5257 0.5000
vn -0.9510 0.0000 0.3090
vn 0.7366 0.4893 0.4668
vn 0.7077 0.2612 -0.6565
vn -0.0016 0.9912 -0.1321
vn 0.9537 0.1497 -0.2607
vn 0.9510 0.0000 0.3090
vn 0.4931 0.8280 -0.2671
vn 0.8506 0.5257 0.0000
vn -0.2982 -0.4863 0.8213
vn 0.0000 -0.2528 0.9675
vn -0.6267 -0.0038 0.7793
vn -0.9537 0.1497 -0.2607
vn -0.2403 -0.4116 -0.8791
vn -0.5672 0.0246 -0.8232
vn 0.0000 0.0158 -0.9998
vn 0.1625 -0.8506 0.5000
vn 0.2982 -0.4863 0.8213
vn 0.6146 0.3836 -0.6892
vn 0.5672 0.0246 -0.8232
vn -0.7236 0.4472 0.5257
vn -0.6469 0.4973 0.5781
vn -0.4724 0.8355 0.2805
vn -0.7236 0.4472 -0.5257
vn -0.8506 0.5257 0.0000
vn -0.4931 0.8280 -0.2671
vn 0.0000 -0.5277 -0.8494
vn -0.9386 -0.0085 -0.3449
vn 0.0000 0.8086 -0.5882
vn 0.0000 -0.5229 -0.8524
vn 0.2403 -0.4116 -0.8791
vn 0.0583 -0.8726 -0.4850
vn 0.9253 0.1690 0.3394
vn 0.0000 -0.1984 0.9801
vn 0.0000 -0.9689 0.2474
vn 0.7236 0.4472 -0.5257
vn 0.0000 0.9672 -0.2539
vn 0.0000 0.9998 0.0186
vn 0.0000 0.8693 -0.4942
vn -0.6146 0.3836 -0.6892
vn 0.0000 -0.7009 -0.7132
vn 0.0000 -0.7009 0.7132
vn 0.9386 -0.0085 -0.3449
vn 0.0097 -0.8518 -0.5237
vn 0.9650 0.2322 -0.1218
vn 0.8079 -0.4756 -0.3479
vn 0.8695 0.4024 -0.2862
vn 0.0000 0.1673 -0.9859
vn 0.7074 0.4179 -0.5700
vn 0.6165 -0.4031 -0.6764
vn -0.8640 0.4806 0.1500
vn -0.7074 0.4179 -0.5700
vn -0.6165 -0.4031 -0.6764
vn 0.6267 -0.0038 0.7793
vn 0.0000 -0.9014 0.4329
vn 0.3140 -0.9484 0.0437
vn 0.0956 -0.9473 -0.3058
vn 0.8553 -0.5182 0.0025
vn -0.0097 -0.8518 -0.5237
vn -0.0561 0.9984 -0.0033
vn 0.0000 0.8559 0.5171
vn 0.0000 0.9387 0.3446
vn -0.9253 0.1690 0.3394
vn 0.0000 0.8547 0.5191
vn -0.8649 -0.4955 -0.0803
vn 0.0000 -0.5713 0.8207
vn 0.2790 0.0695 -0.9578
vn -0.3140 -0.9484 0.0437
vn -0.8860 -0.4367 0.1561
vn 0.2109 -0.8933 -0.3969
vn -0.9650 0.2322 -0.1218
vn -0.5561 0.5015 -0.6627
vn 0.0561 0.9984 -0.0033
vn 0.8640 0.4806 0.1500
vn -0.8079 -0.4756 -0.3479
vn 0.8649 -0.4955 -0.0803
vn -0.8695 0.4024 -0.2862
vn -0.0956 -0.9473 -0.3058
vn -0.2790 0.0695 -0.9578
vn 0.5561 0.5015 -0.6627
vn 0.8860 -0.4367 0.1561
vn -0.2109 -0.8933 -0.3969
vn 0.0000 -0.9984 0.0567
vn 0.0000 0.9405 -0.3397
vn 0.0000 -0.7527 -0.6583
vn -0.9293 0.1632 -0.3313
vn 0.9293 0.1632 -0.3313
vn 0.0000 0.9386 0.3449
vn -0.8963 0.3045 0.3224
vn 0.0000 -0.8909 0.4541
vn 0.8963 0.3045 0.3224
usemtl Material.004
s 1
f 87/1/1 86/2/2 45/3/3
f 16/4/4 71/5/5 103/6/6
f 1/7/7 9/8/8 51/9/9
f 1/10/7 51/11/9 52/12/10
f 1/10/7 52/12/10 40/13/11
f 77/14/12 76/15/13 31/16/14
f 90/17/15 87/18/1 45/3/3
f 50/19/16 13/20/17 19/21/18
f 61/22/19 15/23/20 60/24/21
f 76/25/13 79/26/22 46/27/23
f 72/28/24 71/29/5 69/30/25
f 2/31/26 102/32/27 20/33/28
f 50/34/16 19/35/18 53/36/29
f 4/37/30 48/38/31 23/39/32
f 24/40/33 31/16/14 7/41/34
f 23/39/32 95/42/35 73/43/36
f 5/44/37 101/45/38 29/46/39
f 6/47/40 26/48/41 30/49/42
f 33/50/43 97/51/44 96/52/45
f 34/53/46 23/39/32 11/54/47
f 1/10/7 78/55/48 77/56/12
f 107/57/49 35/58/50 106/59/51
f 79/26/22 17/60/52 69/30/25
f 36/61/53 30/49/42 8/62/54
f 92/63/55 30/49/42 36/61/53
f 93/64/56 6/47/40 30/49/42
f 30/49/42 29/65/39 8/62/54
f 30/49/42 26/48/41 29/65/39
f 26/66/41 5/44/37 29/46/39
f 1/7/7 77/14/12 24/40/33
f 1/10/7 40/13/11 78/55/48
f 41/67/57 11/54/47 78/55/48
f 92/68/55 72/28/24 95/42/35
f 7/41/34 42/69/58 24/40/33
f 76/15/13 46/70/23 31/16/14
f 33/50/43 96/52/45 99/71/59
f 90/17/15 45/3/3 89/72/60
f 67/73/61 82/74/62 85/75/63
f 23/39/32 93/64/56 75/76/64
f 23/39/32 48/38/31 93/64/56
f 48/38/31 6/47/40 93/64/56
f 53/36/29 26/48/41 6/47/40
f 53/36/29 19/35/18 26/48/41
f 19/21/18 5/44/37 26/66/41
f 20/33/28 101/45/38 5/44/37
f 20/33/28 102/32/27 101/45/38
f 45/3/3 91/77/65 88/78/66
f 77/14/12 31/16/14 24/40/33
f 95/42/35 72/28/24 17/60/52
f 81/79/67 86/2/2 87/1/1
f 79/26/22 69/30/25 46/27/23
f 69/80/25 71/5/5 16/4/4
f 34/53/46 4/37/30 23/39/32
f 48/38/31 53/36/29 6/47/40
f 60/24/21 15/23/20 65/81/68
f 15/23/20 62/82/69 65/81/68
f 19/21/18 20/33/28 5/44/37
f 19/21/18 13/20/17 20/33/28
f 13/20/17 2/31/26 20/33/28
f 46/70/23 16/4/4 47/83/70
f 73/43/36 17/60/52 79/26/22
f 24/40/33 43/84/71 1/7/7
f 86/2/2 91/77/65 45/3/3
f 47/83/70 16/4/4 103/6/6
f 73/43/36 95/42/35 17/60/52
f 89/72/60 45/3/3 88/78/66
f 40/13/11 52/12/10 41/67/57
f 82/74/62 28/85/72 83/86/73
f 64/87/74 15/23/20 61/88/19
f 64/87/74 63/89/75 15/23/20
f 63/89/75 62/82/69 15/23/20
f 51/9/9 13/20/17 50/19/16
f 51/9/9 9/8/8 13/20/17
f 9/8/8 2/31/26 13/20/17
f 46/70/23 69/80/25 16/4/4
f 80/90/76 91/77/65 86/2/2
f 47/83/70 103/6/6 102/32/27
f 82/74/62 89/72/60 88/78/66
f 36/91/53 8/92/54 72/28/24
f 11/54/47 23/39/32 73/43/36
f 9/8/8 43/84/71 42/69/58
f 7/41/34 47/83/70 102/32/27
f 29/46/39 100/93/77 38/94/78
f 23/39/32 75/76/64 95/42/35
f 105/95/79 35/58/50 104/96/80
f 4/37/30 41/67/57 52/12/10
f 17/60/52 72/28/24 69/30/25
f 29/46/39 38/94/78 8/97/54
f 72/28/24 8/92/54 71/29/5
f 89/72/60 84/98/81 90/17/15
f 71/5/5 100/99/77 103/6/6
f 105/95/79 106/100/51 35/58/50
f 2/31/26 32/101/82 102/32/27
f 42/69/58 2/31/26 9/8/8
f 9/8/8 1/7/7 43/84/71
f 31/16/14 47/83/70 7/41/34
f 49/102/83 48/38/31 4/37/30
f 12/103/84 50/104/16 3/105/85
f 14/106/86 4/37/30 52/12/10
f 22/107/87 50/34/16 53/36/29
f 21/108/88 53/36/29 48/38/31
f 14/106/86 51/11/9 12/109/84
f 54/110/89 49/111/83 55/112/90
f 56/113/91 12/103/84 3/105/85
f 58/114/92 49/115/83 14/116/86
f 56/113/91 22/117/87 59/118/93
f 59/118/93 21/119/88 54/110/89
f 57/120/94 14/116/86 12/103/84
f 60/24/21 55/112/90 61/22/19
f 63/89/75 56/113/91 62/82/69
f 64/87/74 55/121/90 58/114/92
f 62/82/69 59/118/93 65/81/68
f 65/81/68 54/110/89 60/24/21
f 63/89/75 58/114/92 57/120/94
f 46/70/23 47/83/70 31/16/14
f 40/13/11 41/67/57 78/55/48
f 107/57/49 104/96/80 35/58/50
f 7/41/34 102/32/27 32/101/82
f 71/5/5 8/122/54 38/123/78
f 24/40/33 42/69/58 43/84/71
f 74/124/95 73/43/36 66/125/96
f 76/126/13 28/85/72 10/127/97
f 67/73/61 76/126/13 10/127/97
f 77/56/12 44/128/98 28/129/72
f 66/125/96 79/26/22 67/130/61
f 44/128/98 11/54/47 74/124/95
f 74/131/95 80/90/76 81/79/67
f 84/98/81 74/132/95 81/133/67
f 83/86/73 44/134/98 84/98/81
f 85/75/63 88/78/66 91/77/65
f 90/17/15 81/133/67 87/18/1
f 66/135/96 85/75/63 80/90/76
f 98/136/99 33/50/43 99/71/59
f 98/137/99 97/51/44 33/50/43
f 37/138/100 93/139/56 92/140/55
f 94/141/101 93/139/56 27/142/102
f 37/138/100 95/143/35 70/144/103
f 94/145/101 95/143/35 75/146/64
f 96/52/45 27/142/102 37/138/100
f 98/137/99 27/142/102 97/51/44
f 96/52/45 70/144/103 99/71/59
f 98/136/99 70/144/103 94/145/101
f 39/147/104 101/148/38 25/149/105
f 25/149/105 102/150/27 18/151/106
f 39/147/104 103/152/6 100/153/77
f 68/154/107 102/155/27 103/152/6
f 104/96/80 25/149/105 105/95/79
f 105/95/79 18/151/106 106/100/51
f 104/96/80 68/154/107 39/147/104
f 107/57/49 18/156/106 68/154/107
f 92/63/55 93/64/56 30/49/42
f 41/67/57 34/53/46 11/54/47
f 92/68/55 36/91/53 72/28/24
f 7/41/34 32/101/82 42/69/58
f 67/73/61 10/127/97 82/74/62
f 81/79/67 80/90/76 86/2/2
f 82/74/62 10/127/97 28/85/72
f 80/90/76 85/75/63 91/77/65
f 82/74/62 83/86/73 89/72/60
f 29/46/39 101/45/38 100/93/77
f 4/37/30 34/53/46 41/67/57
f 89/72/60 83/86/73 84/98/81
f 71/5/5 38/123/78 100/99/77
f 42/69/58 32/101/82 2/31/26
f 49/102/83 21/108/88 48/38/31
f 12/109/84 51/11/9 50/157/16
f 14/106/86 49/102/83 4/37/30
f 22/117/87 3/105/85 50/104/16
f 21/108/88 22/107/87 53/36/29
f 14/106/86 52/12/10 51/11/9
f 54/110/89 21/119/88 49/111/83
f 56/113/91 57/120/94 12/103/84
f 58/114/92 55/121/90 49/115/83
f 56/113/91 3/105/85 22/117/87
f 59/118/93 22/117/87 21/119/88
f 57/120/94 58/114/92 14/116/86
f 60/24/21 54/110/89 55/112/90
f 63/89/75 57/120/94 56/113/91
f 64/87/74 61/88/19 55/121/90
f 62/82/69 56/113/91 59/118/93
f 65/81/68 59/118/93 54/110/89
f 63/89/75 64/87/74 58/114/92
f 74/124/95 11/54/47 73/43/36
f 76/158/13 77/56/12 28/129/72
f 67/130/61 79/26/22 76/25/13
f 77/56/12 78/55/48 44/128/98
f 66/125/96 73/43/36 79/26/22
f 44/128/98 78/55/48 11/54/47
f 74/131/95 66/135/96 80/90/76
f 84/98/81 44/134/98 74/132/95
f 83/86/73 28/85/72 44/134/98
f 85/75/63 82/74/62 88/78/66
f 90/17/15 84/98/81 81/133/67
f 66/135/96 67/73/61 85/75/63
f 37/138/100 27/142/102 93/139/56
f 94/141/101 75/159/64 93/139/56
f 37/138/100 92/140/55 95/143/35
f 94/145/101 70/144/103 95/143/35
f 96/52/45 97/51/44 27/142/102
f 98/137/99 94/141/101 27/142/102
f 96/52/45 37/138/100 70/144/103
f 98/136/99 99/71/59 70/144/103
f 39/147/104 100/153/77 101/148/38
f 25/149/105 101/148/38 102/150/27
f 39/147/104 68/154/107 103/152/6
f 68/154/107 18/156/106 102/155/27
f 104/96/80 39/147/104 25/149/105
f 105/95/79 25/149/105 18/151/106
f 104/96/80 107/57/49 68/154/107
f 107/57/49 106/59/51 18/156/106
