# Blender v2.79 (sub 0) OBJ File: ''
# www.blender.org
mtllib skybox2.mtl
o Cube
v -1.000000 -1.000000 1.000000
v -1.000000 1.000000 1.000000
v -1.000000 -1.000000 -1.000000
v -1.000000 1.000000 -1.000000
v 1.000000 -1.000000 1.000000
v 1.000000 1.000000 1.000000
v 1.000000 -1.000000 -1.000000
v 1.000000 1.000000 -1.000000
vt 0.992340 0.665036
vt 0.745676 0.665036
vt 0.745676 0.334964
vt 0.992340 0.334964
vt 0.499013 0.665036
vt 0.499013 0.334964
vt 0.252350 0.665036
vt 0.252350 0.334964
vt 0.005686 0.665036
vt 0.005686 0.334964
vt 0.499013 0.995108
vt 0.252350 0.995108
vt 0.252350 0.004892
vt 0.499013 0.004892
vn 0.5773 0.5773 -0.5773
vn 0.5773 0.5773 0.5773
vn 0.5773 -0.5773 0.5773
vn 0.5773 -0.5773 -0.5773
vn -0.5773 0.5773 0.5773
vn -0.5773 -0.5773 0.5773
vn -0.5773 0.5773 -0.5773
vn -0.5773 -0.5773 -0.5773
usemtl Material
s 1
f 1/1/1 3/2/2 4/3/3 2/4/4
f 3/2/2 7/5/5 8/6/6 4/3/3
f 7/5/5 5/7/7 6/8/8 8/6/6
f 5/7/7 1/9/1 2/10/4 6/8/8
f 3/11/2 1/12/1 5/7/7 7/5/5
f 8/6/6 6/8/8 2/13/4 4/14/3
